<svg width="25" height="25" viewBox="0 0 25 25" fill="none" xmlns="http://www.w3.org/2000/svg">
<path fill-rule="evenodd" clip-rule="evenodd" d="M25.0005 9.30313C25.0005 4.16406 21.0549 0 16.1902 0C11.3211 0 7.37695 4.16406 7.37695 9.30313C7.37695 14.4391 11.3225 18.6031 16.1902 18.6031C21.0549 18.6031 25.0005 14.4391 25.0005 9.30313ZM8.72695 9.40469C8.72811 8.36138 8.92276 7.32855 9.29978 6.36521C9.6768 5.40187 10.2288 4.52692 10.9242 3.79035C11.6196 3.05378 12.4449 2.47004 13.3527 2.0725C14.2606 1.67495 15.2333 1.47138 16.2152 1.47344C17.1967 1.47179 18.169 1.67569 19.0763 2.07346C19.9837 2.47123 20.8083 3.05508 21.5032 3.79164C22.1981 4.52821 22.7496 5.40305 23.1261 6.36617C23.5026 7.32928 23.6968 8.36179 23.6975 9.40469C23.6966 10.4474 23.5022 11.4798 23.1256 12.4427C22.749 13.4057 22.1976 14.2803 21.5027 15.0167C20.8078 15.7531 19.9832 16.3368 19.076 16.7345C18.1687 17.1322 17.1966 17.336 16.2152 17.3344C12.0784 17.3344 8.72695 13.7844 8.72695 9.40469Z" fill="white"/>
<path fill-rule="evenodd" clip-rule="evenodd" d="M4.15011 24.9438L1.4707 22.097L7.40747 15.7876C7.40747 15.7876 7.54864 16.9829 8.26041 17.736C8.96923 18.4923 10.0869 18.636 10.0869 18.636L4.15011 24.9438Z" fill="white"/>
<path fill-rule="evenodd" clip-rule="evenodd" d="M21.1741 7.92666C21.1741 8.82041 21.8211 8.48291 21.8211 7.24072C21.8211 5.1001 20.1902 3.36572 18.1755 3.36572C17.0035 3.36572 16.6873 4.05166 17.5299 4.05166C18.0087 4.05187 18.4827 4.15226 18.9249 4.34711C19.3672 4.54195 19.769 4.82744 20.1073 5.18727C20.4457 5.5471 20.7141 5.97422 20.8971 6.44424C21.0802 6.91427 21.1743 7.41799 21.1741 7.92666Z" fill="white"/>
</svg>
