<svg width="82" height="82" viewBox="0 0 82 82" fill="none" xmlns="http://www.w3.org/2000/svg">
<g clip-path="url(#clip0_744_964)">
<path d="M31.1034 8.48291L31.1034 73.5174L50.8965 73.5174L50.8965 8.48291L31.1034 8.48291Z" fill="#5BBF7E"/>
<path d="M43.8285 14.1381L43.8285 8.48295C43.8285 7.6346 44.394 7.06909 45.2424 7.06909C46.0907 7.06909 46.6562 7.6346 46.6562 8.48295L46.6562 14.1381C46.6562 14.9864 46.0907 15.5519 45.2424 15.5519C44.394 15.5519 43.8285 14.9863 43.8285 14.1381Z" fill="#1B884C"/>
<path d="M43.8285 36.7587L43.8285 25.4483C43.8285 24.5999 44.394 24.0344 45.2424 24.0344C46.0907 24.0344 46.6562 24.5999 46.6562 25.4483L46.6562 36.7587C46.6562 37.607 46.0907 38.1725 45.2424 38.1725C44.394 38.1725 43.8285 37.607 43.8285 36.7587Z" fill="#1B884C"/>
<path d="M45.2424 21.2069C46.0907 21.2069 46.6562 20.6414 46.6562 19.793C46.6562 18.9447 46.0907 18.3792 45.2424 18.3792C44.394 18.3792 43.8285 18.9447 43.8285 19.793C43.8285 20.6414 44.394 21.2069 45.2424 21.2069Z" fill="#1B884C"/>
<path d="M43.8285 57.9654L43.8285 43.8274C43.8285 42.9791 44.394 42.4136 45.2424 42.4136C46.0907 42.4136 46.6562 42.9791 46.6562 43.8274L46.6562 57.9654C46.6562 58.8137 46.0907 59.3793 45.2424 59.3793C44.394 59.3793 43.8285 58.8137 43.8285 57.9654Z" fill="#1B884C"/>
<path d="M43.8285 73.5172L43.8285 66.4483C43.8285 65.5999 44.394 65.0344 45.2424 65.0344C46.0907 65.0344 46.6562 65.5999 46.6562 66.4483L46.6562 73.5172C46.6562 74.3656 46.0907 74.9311 45.2424 74.9311C44.394 74.9311 43.8285 74.3656 43.8285 73.5172Z" fill="#1B884C"/>
<path d="M26.8628 7.06897L26.8628 1.41386C26.8628 0.56551 27.4283 -1.21126e-06 28.2766 -1.17418e-06L53.7248 -6.18018e-08C54.5732 -2.47193e-08 55.1387 0.565512 55.1387 1.41386L55.1387 7.06897C55.1387 7.91732 54.5732 8.48283 53.7248 8.48283L28.2765 8.48283C27.4283 8.48283 26.8628 7.91716 26.8628 7.06897Z" fill="#1B884C"/>
<path d="M26.8628 80.5861L26.8628 74.9309C26.8628 74.0826 27.4283 73.5171 28.2766 73.5171L53.7248 73.5171C54.5732 73.5171 55.1387 74.0826 55.1387 74.9309L55.1387 80.5861C55.1387 81.4344 54.5732 81.9999 53.7248 81.9999L28.2765 81.9999C27.4283 81.9999 26.8628 81.4344 26.8628 80.5861Z" fill="#1B884C"/>
</g>
<defs>
<clipPath id="clip0_744_964">
<rect width="82" height="82" fill="white" transform="translate(82) rotate(90)"/>
</clipPath>
</defs>
</svg>
